<svg xmlns="http://www.w3.org/2000/svg" viewBox="0 0 226.58 87.592">
  <path data-name="Path 4" d="M3.097 12.848c3.44 0 7.52.24 15.92.24a17.124 17.124 0 0 0 1.44 4.8c3.84 8.4 13.52 28.481 14.88 30.961.08.08.24.08.4-.08 1.28-2.48 11.6-23.681 15.04-31.6a28.143 28.143 0 0 0 1.28-4.08c8.4 0 11.92-.24 15.68-.24.4.24.4 2.72 0 3.12-2.56.4-4.48.64-5.76.96-1.12.32-2.08 1.04-2.08 3.12-.16 5.04.48 29.121.96 34.32.32 2.881.8 3.92 3.28 4.561 1.2.24 2.64.4 4.72.721a4.407 4.407 0 0 1-.08 3.2c-2.32 0-5.92-.24-11.36-.24-4.48 0-9.36.16-11.6.24a4.414 4.414 0 0 1 0-3.2c1.84-.32 3.6-.641 4.72-.961a2.939 2.939 0 0 0 2.08-3.2c.08-5.44-.08-24.081-.16-31.761-.08-.16-.24-.24-.48 0-2.08 4.96-14.561 30.64-17.44 38.64a10.1 10.1 0 0 1-3.12.24c-2-6.479-12.32-29.44-16.16-38.4-.16-.16-.4-.08-.48.24-.48 7.36-1.36 21.6-1.6 29.6 0 2.479.16 3.76 2.72 4.56a30.407 30.407 0 0 0 5.68 1.041c.4.4.24 2.879-.32 3.2-1.36 0-6.24-.24-10.72-.24-4.64 0-8.8.24-10.24.24a4.414 4.414 0 0 1 0-3.2 34.561 34.561 0 0 0 4.56-.8c2.4-.8 2.8-1.76 3.28-5.04.96-6.88 2.32-25.36 2.96-33.281a3.2 3.2 0 0 0-2.16-3.36 48.874 48.874 0 0 0-5.92-1.2c-.48-.32-.32-2.88.08-3.121Zm93.76 50c-1.52 0-3.44-.24-8.88-.24-3.6 0-6.96.24-8.24.24-.48-.32-.56-2.8-.08-3.2a18.929 18.929 0 0 0 3.6-.8c1.2-.32 1.36-.96 1.44-2.48.16-2 .16-6.4.16-10.64v-8a2.532 2.532 0 0 0-.72-1.76c-.88-.96-2.48-1.52-4.24-2.24a2.76 2.76 0 0 1 .48-2.48 49.427 49.427 0 0 0 11.52-2.4v14.48c0 4.4 0 9.52.08 12.959a2.42 2.42 0 0 0 1.6 2.641 27.067 27.067 0 0 0 3.68.721 4.461 4.461 0 0 1-.4 3.2Zm-6.32-40.8a9.114 9.114 0 0 1-4.16.24 5.484 5.484 0 0 1-2.48-3.68c-.08-.4 0-2.4.48-2.8a7.887 7.887 0 0 1 4.48-1.68 3.528 3.528 0 0 1 2.56.72 5.449 5.449 0 0 1 .88 2.64 6.275 6.275 0 0 1-1.76 4.56Zm18.558 37.6a14.369 14.369 0 0 0 3.52-.8 2.358 2.358 0 0 0 1.36-2.16c.32-2 .4-7.36.4-20.8 0-5.84 0-14.96-.16-17.6-.08-.64-.16-2.48-1.28-2.72-.8-.24-2.64-.48-4.88-.8-.4-.24-.4-2.32.16-2.64a56 56 0 0 0 13.04-3.04 1.9 1.9 0 0 1 .72 1.04 12.555 12.555 0 0 0-.72 5.28c-.08 4-.08 13.44-.159 20.48 0 12.24.079 17.441.159 19.6.08 1.92.24 3.039 1.921 3.439a14.464 14.464 0 0 0 3.439.721 4.51 4.51 0 0 1-.4 3.2c-1.84 0-4-.24-8.96-.24-3.2 0-7.2.24-8.24.24a4.9 4.9 0 0 1 .08-3.2Zm46.24 3.2c-1.521 0-3.44-.24-8.88-.24-3.6 0-6.961.24-8.24.24-.48-.32-.561-2.8-.08-3.2a18.929 18.929 0 0 0 3.6-.8c1.2-.32 1.36-.96 1.439-2.48.16-2 .16-6.4.16-10.64v-8a2.535 2.535 0 0 0-.719-1.76c-.881-.96-2.48-1.52-4.24-2.24a2.763 2.763 0 0 1 .479-2.48 49.444 49.444 0 0 0 11.521-2.4v14.48c0 4.4 0 9.52.08 12.959a2.419 2.419 0 0 0 1.6 2.641 27.068 27.068 0 0 0 3.68.721 4.466 4.466 0 0 1-.4 3.2Zm-6.32-40.8a9.114 9.114 0 0 1-4.16.24 5.479 5.479 0 0 1-2.479-3.68c-.08-.4 0-2.4.479-2.8a7.886 7.886 0 0 1 4.479-1.68 3.533 3.533 0 0 1 2.561.72 5.449 5.449 0 0 1 .881 2.64 6.279 6.279 0 0 1-1.761 4.56Z" fill="white"/>
  <path data-name="Path 5" d="M3.097 81.425a4.88 4.88 0 0 0 .059.849 1.351 1.351 0 0 0 .181.5.828.828 0 0 0 .33.289 3.117 3.117 0 0 0 .65.2v.442H.352v-.442a1.86 1.86 0 0 0 .75-.32.884.884 0 0 0 .249-.5 6.123 6.123 0 0 0 .059-.994v-7.813a6.457 6.457 0 0 0-.045-.907 1.141 1.141 0 0 0-.149-.443.767.767 0 0 0-.275-.252 2.96 2.96 0 0 0-.587-.213v-.442h4.48a5.082 5.082 0 0 1 3.148.808 2.933 2.933 0 0 1 1.034 2.462 4.2 4.2 0 0 1-.325 1.689 3.166 3.166 0 0 1-.921 1.236 3.661 3.661 0 0 1-1.409.687 6.849 6.849 0 0 1-1.708.208c-.668 0-1.186-.013-1.554-.036v3Zm0-3.749h1.05a4.556 4.556 0 0 0 1.685-.267 1.989 1.989 0 0 0 1.016-.886 3.3 3.3 0 0 0 .353-1.639 3.507 3.507 0 0 0-.208-1.3 2.035 2.035 0 0 0-1.446-1.282 4.41 4.41 0 0 0-1.1-.131q-.894 0-1.346.036v5.467Zm12.758-1.102.127.026a6.835 6.835 0 0 1 .921-.952 3.32 3.32 0 0 1 .917-.538 3.094 3.094 0 0 1 1.116-.189 7.575 7.575 0 0 1 .949.054v2.078h-1.021a2.131 2.131 0 0 0-.46-.709.958.958 0 0 0-.669-.222 1.261 1.261 0 0 0-.646.189 2.421 2.421 0 0 0-.619.552 2.357 2.357 0 0 0-.411.677 2.217 2.217 0 0 0-.113.75v3.161a4.342 4.342 0 0 0 .1 1.135.8.8 0 0 0 .33.455 1.991 1.991 0 0 0 .691.227v.442h-3.642v-.442a3.1 3.1 0 0 0 .492-.189.8.8 0 0 0 .258-.227 1.067 1.067 0 0 0 .162-.442 5.722 5.722 0 0 0 .055-.931v-3.938c0-.386-.006-.695-.019-.931a1.417 1.417 0 0 0-.126-.564.694.694 0 0 0-.33-.316 2.687 2.687 0 0 0-.628-.176v-.47l2.114-.09h.551l-.1 1.58Zm11.642 7.28a3.647 3.647 0 0 1-2.868-1.106 4.775 4.775 0 0 1-.989-3.274 5.561 5.561 0 0 1 .519-2.521 3.481 3.481 0 0 1 1.423-1.531 4.175 4.175 0 0 1 2.06-.5 3.7 3.7 0 0 1 2.927 1.124 4.723 4.723 0 0 1 .994 3.229 5.79 5.79 0 0 1-.5 2.529 3.392 3.392 0 0 1-1.409 1.54 4.351 4.351 0 0 1-2.16.511Zm-2.15-4.571a5.653 5.653 0 0 0 .592 2.859 1.864 1.864 0 0 0 1.693 1 1.77 1.77 0 0 0 1.03-.293 2.2 2.2 0 0 0 .691-.791 3.877 3.877 0 0 0 .384-1.151 7.774 7.774 0 0 0 .118-1.368 7.028 7.028 0 0 0-.294-2.205 2.73 2.73 0 0 0-.8-1.287 1.787 1.787 0 0 0-1.156-.41 1.855 1.855 0 0 0-1.676.948 5.186 5.186 0 0 0-.583 2.7Zm30.781-7.461a2.46 2.46 0 0 0-.573.2.815.815 0 0 0-.28.248 1.1 1.1 0 0 0-.153.447 6.157 6.157 0 0 0-.05.921v7.813a6.859 6.859 0 0 0 .041.886 1.214 1.214 0 0 0 .136.442.753.753 0 0 0 .28.271 2.555 2.555 0 0 0 .6.217v.442h-3.762v-.442a1.914 1.914 0 0 0 .714-.289.835.835 0 0 0 .271-.479 5.317 5.317 0 0 0 .072-1.049v-3.459q0-1.365.041-2.76t.1-1.91h-.158l-3.577 8.953h-1.039l-3.324-9.1h-.153q.045.55.085 2t.041 2.972v3.306a6.859 6.859 0 0 0 .041.886 1.235 1.235 0 0 0 .135.442.76.76 0 0 0 .28.271 2.538 2.538 0 0 0 .6.217v.442h-3.299v-.442a1.86 1.86 0 0 0 .75-.32.884.884 0 0 0 .249-.5 6.123 6.123 0 0 0 .059-.994v-7.813a6.458 6.458 0 0 0-.045-.907 1.141 1.141 0 0 0-.149-.443.767.767 0 0 0-.275-.252 2.96 2.96 0 0 0-.587-.213v-.442h3.228l3.17 8.789 3.487-8.789h3.053v.443Zm9.966 10.6-.136-.036a5.547 5.547 0 0 1-1.477 1.139 3.324 3.324 0 0 1-1.468.334 2.627 2.627 0 0 1-1.21-.267 1.907 1.907 0 0 1-.8-.75 2.178 2.178 0 0 1-.28-1.115 2.231 2.231 0 0 1 1.305-2.037 9.249 9.249 0 0 1 3.916-.836v-.587a4.827 4.827 0 0 0-.181-1.481 1.46 1.46 0 0 0-.569-.795 1.886 1.886 0 0 0-1.039-.253 1.679 1.679 0 0 0-1.134.37 2.273 2.273 0 0 0-.646 1.111h-1.184v-1.174a13.034 13.034 0 0 1 1.445-.664 8.246 8.246 0 0 1 1.156-.334 5.624 5.624 0 0 1 1.174-.122 3.106 3.106 0 0 1 1.436.284 1.8 1.8 0 0 1 .813.872 4.434 4.434 0 0 1 .271 1.771v3.144c0 .445 0 .761.009.944a3.284 3.284 0 0 0 .054.51 1.056 1.056 0 0 0 .136.375.733.733 0 0 0 .266.239 2.721 2.721 0 0 0 .574.208v.442H66.05Zm-.154-2.827a6.388 6.388 0 0 0-2.746.487 1.514 1.514 0 0 0-.913 1.419 1.4 1.4 0 0 0 .208.813 1.067 1.067 0 0 0 .524.411 2.213 2.213 0 0 0 .75.113 2.139 2.139 0 0 0 1.116-.3 2.222 2.222 0 0 0 .782-.758 1.747 1.747 0 0 0 .28-.913v-1.273Zm9.157-.921h.289a1.58 1.58 0 0 0 .488-.063 2.157 2.157 0 0 0 .5-.275 8.663 8.663 0 0 0 .768-.655 6.3 6.3 0 0 0 .628-.659 1.854 1.854 0 0 0 .293-.5 1.06 1.06 0 0 0 .072-.379.55.55 0 0 0-.167-.425 1.011 1.011 0 0 0-.546-.208v-.436h3.893v.442a2.735 2.735 0 0 0-.885.37 6.045 6.045 0 0 0-.967.76l-2.077 1.969 2.6 3.4a4.813 4.813 0 0 0 .817.881 1.949 1.949 0 0 0 .8.375v.442h-3.472v-.442a.81.81 0 0 0 .348-.1.292.292 0 0 0 .113-.258.769.769 0 0 0-.049-.267 1.863 1.863 0 0 0-.2-.356c-.1-.15-.289-.413-.56-.786l-1.075-1.445a5.565 5.565 0 0 0-.438-.533.789.789 0 0 0-.276-.181 1.133 1.133 0 0 0-.388-.055h-.509v2.168a5.4 5.4 0 0 0 .072 1.08.8.8 0 0 0 .275.461 1.878 1.878 0 0 0 .664.275v.442h-3.587v-.442a2.035 2.035 0 0 0 .628-.244.728.728 0 0 0 .253-.3 1.662 1.662 0 0 0 .108-.479c.021-.2.032-.465.032-.791v-7.561q0-.867-.014-1.21a3 3 0 0 0-.072-.583 1.006 1.006 0 0 0-.163-.375.743.743 0 0 0-.28-.217 2.967 2.967 0 0 0-.637-.162v-.478l2.177-.091h.544v7.891Zm16.966 3.5a7.48 7.48 0 0 1-1.062.949 4.065 4.065 0 0 1-1.062.537 3.99 3.99 0 0 1-1.273.194 3.483 3.483 0 0 1-2.81-1.116 4.965 4.965 0 0 1-.948-3.292 5.54 5.54 0 0 1 .483-2.376 3.649 3.649 0 0 1 1.377-1.59 4.172 4.172 0 0 1 3.614-.271 2.606 2.606 0 0 1 1.025.79 3.67 3.67 0 0 1 .6 1.265 8.365 8.365 0 0 1 .239 1.992H86.55v.162a5.819 5.819 0 0 0 .239 1.794 2.27 2.27 0 0 0 .786 1.138 2.3 2.3 0 0 0 1.422.411 3.134 3.134 0 0 0 1.333-.275 3.92 3.92 0 0 0 1.179-.9l.553.587Zm-1.517-3.667a6.851 6.851 0 0 0-.244-1.6 1.987 1.987 0 0 0-.569-.948 1.464 1.464 0 0 0-.994-.329 1.762 1.762 0 0 0-1.486.744 4.008 4.008 0 0 0-.655 2.128h3.948Zm5.883-3.433h2.575v4.6a11.711 11.711 0 0 0 .082 1.608 2.392 2.392 0 0 0 .244.831 1.376 1.376 0 0 0 .46.47 1.529 1.529 0 0 0 .822.189 1.641 1.641 0 0 0 .659-.136 2.763 2.763 0 0 0 .705-.475 2.25 2.25 0 0 0 .555-.672 1.723 1.723 0 0 0 .167-.777v-3.388c0-.343-.009-.6-.027-.776a1.609 1.609 0 0 0-.09-.42.913.913 0 0 0-.149-.258.82.82 0 0 0-.244-.181 2.688 2.688 0 0 0-.51-.172v-.443h2.575v6.17c0 .463.009.8.027 1a1.362 1.362 0 0 0 .118.488.691.691 0 0 0 .28.293 2.376 2.376 0 0 0 .677.213v.47l-2.068.091h-.551l.054-1.482-.135-.035a5.969 5.969 0 0 1-1.432 1.191 2.783 2.783 0 0 1-1.369.38 2.563 2.563 0 0 1-1.355-.325 1.964 1.964 0 0 1-.795-.971 5 5 0 0 1-.262-1.82v-3.413a6.086 6.086 0 0 0-.059-1.043.862.862 0 0 0-.226-.452 1.736 1.736 0 0 0-.728-.312v-.443Zm15.656 8.365v1.9a6.862 6.862 0 0 0 .041.876 1.165 1.165 0 0 0 .145.457.8.8 0 0 0 .3.275 2.323 2.323 0 0 0 .627.2v.442h-3.686v-.442a3.511 3.511 0 0 0 .529-.185.7.7 0 0 0 .312-.28 1.29 1.29 0 0 0 .145-.5 7.781 7.781 0 0 0 .036-.841v-7.75c0-.434-.006-.742-.018-.927a2.086 2.086 0 0 0-.072-.455.781.781 0 0 0-.158-.3.821.821 0 0 0-.28-.2 2.875 2.875 0 0 0-.583-.163v-.472l2.123-.081h.551l-.118 1.472.135.037a10.634 10.634 0 0 1 .883-.828 3.849 3.849 0 0 1 .673-.429 2.858 2.858 0 0 1 1.35-.316 2.646 2.646 0 0 1 2.289 1.115 5.578 5.578 0 0 1 .8 3.266 6.169 6.169 0 0 1-.451 2.507 3.235 3.235 0 0 1-1.314 1.526 3.959 3.959 0 0 1-2.055.511 6.039 6.039 0 0 1-1.21-.112 5.61 5.61 0 0 1-.995-.3Zm0-2.981a6.326 6.326 0 0 0 .108 1.337 1.622 1.622 0 0 0 .384.764 1.732 1.732 0 0 0 .65.438 2.788 2.788 0 0 0 .989.145 1.8 1.8 0 0 0 1.644-.908 5.237 5.237 0 0 0 .551-2.678q0-3.542-2.068-3.541a2.2 2.2 0 0 0-.872.158 2.442 2.442 0 0 0-.727.51 2.337 2.337 0 0 0-.511.683 1.707 1.707 0 0 0-.149.709v2.383Zm23.78 3.252v-.442a2.955 2.955 0 0 0 .672-.2.728.728 0 0 0 .33-.3 1.069 1.069 0 0 0 .108-.52 3.377 3.377 0 0 0-.072-.664q-.084-.4-.208-.8l-.334-1.165h-4.209l-.308.885a8.98 8.98 0 0 0-.307 1.012 3.066 3.066 0 0 0-.072.624 1.03 1.03 0 0 0 .275.795 1.567 1.567 0 0 0 .845.334v.442h-3.858v-.442a1.365 1.365 0 0 0 .881-.588 6.013 6.013 0 0 0 .727-1.445l3.768-10h1.427l3.071 10.071a9.381 9.381 0 0 0 .385 1.075 1.662 1.662 0 0 0 .4.578 1.487 1.487 0 0 0 .642.308v.442Zm-3.469-4.878h3.775l-1.717-5.826Zm13.894-2.258.126.026a6.836 6.836 0 0 1 .922-.952 3.306 3.306 0 0 1 .917-.538 3.089 3.089 0 0 1 1.115-.189 7.536 7.536 0 0 1 .948.054v2.078h-1.021a2.116 2.116 0 0 0-.461-.709.954.954 0 0 0-.668-.222 1.259 1.259 0 0 0-.646.189 2.418 2.418 0 0 0-.618.552 2.312 2.312 0 0 0-.411.677 2.217 2.217 0 0 0-.113.75v3.161a4.285 4.285 0 0 0 .1 1.135.8.8 0 0 0 .33.455 1.985 1.985 0 0 0 .69.227v.442h-3.64v-.442a3.1 3.1 0 0 0 .492-.189.793.793 0 0 0 .257-.227 1.066 1.066 0 0 0 .163-.442 5.749 5.749 0 0 0 .054-.931v-3.938c0-.386-.006-.695-.018-.931a1.433 1.433 0 0 0-.127-.564.7.7 0 0 0-.329-.316 2.717 2.717 0 0 0-.628-.176v-.47l2.113-.09h.552l-.1 1.58Zm7.445-1.049a1.907 1.907 0 0 0 .732-.252 1.3 1.3 0 0 0 .438-.466 2.55 2.55 0 0 0 .248-.714c.061-.285.124-.7.19-1.251h1.282v2.232h2.918v.912h-2.918v4.02a10.659 10.659 0 0 0 .072 1.4 1.944 1.944 0 0 0 .271.813 1.2 1.2 0 0 0 .451.42 1.461 1.461 0 0 0 .65.127 1.577 1.577 0 0 0 .678-.149 2.523 2.523 0 0 0 .623-.429l.406.487a4.836 4.836 0 0 1-1.215.9 2.657 2.657 0 0 1-1.188.28 2.117 2.117 0 0 1-1.734-.69 3.381 3.381 0 0 1-.569-2.164v-5.014h-1.337v-.46Zm9.577 7.742a3.133 3.133 0 0 0 .5-.189.75.75 0 0 0 .253-.227 1.157 1.157 0 0 0 .163-.442 5.3 5.3 0 0 0 .059-.931V77.54c0-.386-.006-.695-.019-.931a1.417 1.417 0 0 0-.126-.564.694.694 0 0 0-.33-.316 2.687 2.687 0 0 0-.628-.176v-.479l2.1-.081h.552v6.458a5.4 5.4 0 0 0 .072 1.08.8.8 0 0 0 .275.461 1.843 1.843 0 0 0 .664.275v.442h-3.541v-.442Zm2.585-11.734v1.752h-1.662v-1.752Zm11.384 5.52h-.867a2.737 2.737 0 0 0-.47-.854 1.5 1.5 0 0 0-.614-.438 2.43 2.43 0 0 0-.841-.126 1.806 1.806 0 0 0-1.151.338 1.118 1.118 0 0 0-.429.926 1.265 1.265 0 0 0 .172.688 1.723 1.723 0 0 0 .532.506 9.45 9.45 0 0 0 1.274.623 9.407 9.407 0 0 1 1.422.731 2.669 2.669 0 0 1 .786.776 1.912 1.912 0 0 1 .284 1.058 2.674 2.674 0 0 1-.243 1.2 2.089 2.089 0 0 1-.687.795 2.934 2.934 0 0 1-1.053.442 6.1 6.1 0 0 1-1.332.136 9.576 9.576 0 0 1-1.473-.112 14.04 14.04 0 0 1-1.391-.294V81.56h.885a2.29 2.29 0 0 0 .723 1.205 2.089 2.089 0 0 0 1.318.375 2.994 2.994 0 0 0 .637-.067 1.665 1.665 0 0 0 .557-.226 1.146 1.146 0 0 0 .388-.43 1.421 1.421 0 0 0 .145-.678 1.387 1.387 0 0 0-.181-.749 1.726 1.726 0 0 0-.56-.528 10.394 10.394 0 0 0-1.337-.646 8.231 8.231 0 0 1-1.319-.668 2.616 2.616 0 0 1-.781-.768 1.9 1.9 0 0 1-.284-1.049 2.116 2.116 0 0 1 .4-1.287 2.5 2.5 0 0 1 1.16-.835 5.008 5.008 0 0 1 1.779-.289 11.016 11.016 0 0 1 1.152.059q.555.059 1.4.23v1.843Zm4.13-1.528a1.9 1.9 0 0 0 .731-.252 1.286 1.286 0 0 0 .438-.466 2.549 2.549 0 0 0 .248-.714c.061-.285.123-.7.189-1.251h1.28v2.232h2.918v.912h-2.918v4.02a10.484 10.484 0 0 0 .072 1.4 1.931 1.931 0 0 0 .271.813 1.215 1.215 0 0 0 .452.42 1.455 1.455 0 0 0 .65.127 1.58 1.58 0 0 0 .678-.149 2.523 2.523 0 0 0 .623-.429l.406.487a4.836 4.836 0 0 1-1.215.9 2.66 2.66 0 0 1-1.188.28 2.117 2.117 0 0 1-1.734-.69 3.375 3.375 0 0 1-.569-2.164v-5.014h-1.336v-.46Z" fill="white"/>
  <path data-name="Path 6" d="M217.826 44.322c0 .16 0 1.253.017 3.265a39.027 39.027 0 0 0 .815 7.1 37.244 37.244 0 0 0 2.619 8.151 14.094 14.094 0 0 0 5.3 6.307 32.221 32.221 0 0 0-9.462 1.2 24.571 24.571 0 0 0-7.256 3.718 13.645 13.645 0 0 0-4.887 7.747 22.818 22.818 0 0 1-5.394-4.066 58.021 58.021 0 0 1-5.3-6.125 53.408 53.408 0 0 1-5.744-9.76 35.316 35.316 0 0 0-3.556-6.221 15.42 15.42 0 0 0-3.22-3.313 8.35 8.35 0 0 0-3.19-1.438c-1.086-.214-2.218-.391-3.383-.527s-2.42-.313-3.747-.535a13.693 13.693 0 0 1-4.28-1.565q-3.49-1.748-3.7-3.927a6.657 6.657 0 0 1 .9-4.1 19.652 19.652 0 0 1 4.053-4.427 14.914 14.914 0 0 1-1.294-2.56 4.741 4.741 0 0 1-.523-1.822.965.965 0 0 1 .8-1.083 2.826 2.826 0 0 1 2.655.524 8.547 8.547 0 0 1-.713-.855 2.655 2.655 0 0 1-.47-.977 1.217 1.217 0 0 1 .069-.85c.125-.236.469-.4 1.034-.47a6.652 6.652 0 0 1 1.882-.157c.52.053 1.006.094 1.451.144a2.539 2.539 0 0 0 1.149-.11 1.69 1.69 0 0 0 .856-.777 1.119 1.119 0 0 0-.043-1.271c-.274-.524-.611-1.1-1.005-1.706a10.779 10.779 0 0 1-1-1.95 2.61 2.61 0 0 1-.033-2q.249-.844 1.7-1.07a49.553 49.553 0 0 1 3.521-.376 40.191 40.191 0 0 0 4.484-.6 16.98 16.98 0 0 0 4.87-1.75 11.015 11.015 0 0 1-1.045-3.344 6.15 6.15 0 0 1 .775-4.051 3.963 3.963 0 0 0 .223 1.944 7.739 7.739 0 0 0 .82 1.884 5.708 5.708 0 0 0 1.912 1.906 17.134 17.134 0 0 0 2.581-3.119 23.768 23.768 0 0 1 12.118-9.708A31.076 31.076 0 0 1 220.82.537a45.373 45.373 0 0 0-8.162 4.009 40.434 40.434 0 0 0-6.374 5.433 20.045 20.045 0 0 0-4.708 8.227q-1.392 4.461-2.416 9.053a46.561 46.561 0 0 1-2.532 8.077 12.8 12.8 0 0 1-3.948 5.34q-2.442 1.848-6.668.819c-2.579-.679-4.076-1.607-4.5-2.784a4.752 4.752 0 0 1 .106-3.572 12.815 12.815 0 0 1 3.331-4.431 20.343 20.343 0 0 0-5.4 5.617 9.887 9.887 0 0 0-1.121 2.587 5.419 5.419 0 0 0-.037 2.784 7 7 0 0 0 1.535 2.806 11.611 11.611 0 0 0 3.6 2.649 8.428 8.428 0 0 0 6.947 1.062 15.773 15.773 0 0 0 5.552-3.075 25.715 25.715 0 0 0 4.921-6.107 20.349 20.349 0 0 1-.554 5.563 16.052 16.052 0 0 1-2.058 4.456 7.844 7.844 0 0 1-4.22 3.089 13.577 13.577 0 0 0 7.051-1.965 11.79 11.79 0 0 0 4.3-4.968q1.748-3.429.98-9.862a34.454 34.454 0 0 1 2.79 8.882 23.49 23.49 0 0 1-.1 7.5 10.153 10.153 0 0 1-4.08 6.49 16.261 16.261 0 0 0 6.329-2.1 14.053 14.053 0 0 0 4.344-4.125q1.911-2.707 2.098-7.669Z" fill="white"/>
</svg>
